<svg width="140" height="75" viewBox="0 0 140 75" fill="none" xmlns="http://www.w3.org/2000/svg">
<path d="M25.7923 42.4698L18.6507 25.3685H13.4259V48.9671H17.5227V32.7177L24.2629 48.8977H27.3217L34.055 32.7522V48.9671H38.1518V25.3685H32.927L25.7923 42.4698Z" fill="black"/>
<path d="M53.2243 32.3219C52.5253 31.8647 51.7572 31.5392 50.9129 31.3384C50.0687 31.1375 49.2175 31.0404 48.3663 31.0404C42.3872 31.0404 40.7956 35.8129 40.671 37.0804H44.7608C44.9685 36.4709 45.7712 34.2337 48.387 34.2337C50.5531 34.2337 51.3766 35.2173 51.3766 36.3671C51.3766 38.2096 48.041 38.5142 47.003 38.625C46.1449 38.715 45.3145 38.8675 44.5117 39.0684C43.709 39.2692 42.9893 39.5671 42.3526 39.9619C41.716 40.3567 41.2108 40.876 40.844 41.5271C40.4773 42.1782 40.2904 43.0025 40.2904 44.0068C40.2904 45.1635 40.5464 46.1402 41.0655 46.9367C41.5845 47.7263 42.2903 48.3219 43.183 48.7305C44.0757 49.1323 45.0861 49.3332 46.2072 49.3332C49.951 49.3332 51.5357 47.3452 51.5357 47.3452V48.9801H55.5425V37.1359C55.5425 35.9584 55.328 34.9816 54.9059 34.1989C54.4837 33.4162 53.9163 32.7929 53.2173 32.3357L53.2243 32.3219ZM51.3904 42.6148C51.3904 43.2659 51.2243 43.8684 50.8922 44.4225C50.56 44.9766 50.0825 45.4198 49.4735 45.7523C48.8576 46.0848 48.131 46.2511 47.3006 46.2511C46.4701 46.2511 45.7228 46.0571 45.1622 45.6623C44.6017 45.2675 44.3249 44.6925 44.3249 43.9236C44.3249 43.3834 44.4702 42.9471 44.7539 42.6077C45.0377 42.2683 45.4252 41.998 45.9165 41.8041C46.4079 41.6102 46.9615 41.4719 47.5843 41.3888C47.8611 41.3472 48.1864 41.3055 48.5601 41.2501C48.9337 41.1947 49.3144 41.1324 49.7019 41.0631C50.0825 40.9938 50.4354 40.9106 50.7468 40.8206C51.0582 40.7306 51.2797 40.6269 51.4112 40.523V42.6077L51.3904 42.6148Z" fill="black"/>
<path d="M88.585 33.1818C87.8376 32.4545 86.9795 31.914 86.0038 31.5608C85.0349 31.2145 84.0038 31.0345 82.9104 31.0345C81.2219 31.0345 79.7548 31.4224 78.5023 32.1912C77.2497 32.96 76.2809 34.0407 75.5819 35.419C74.8899 36.7974 74.537 38.3972 74.537 40.2188C74.537 42.0405 74.883 43.6754 75.575 45.0399C76.267 46.4044 77.2566 47.457 78.5369 48.1981C79.824 48.9392 81.3534 49.3135 83.125 49.3135C89.0002 49.3135 90.7926 44.7905 90.8133 43.7862H86.9242C86.7373 44.2849 86.4674 44.7075 86.1076 45.0399C85.7477 45.3793 85.3187 45.6355 84.8273 45.8087C84.336 45.9818 83.7893 46.065 83.1803 46.065C82.2738 46.065 81.4849 45.8709 80.8067 45.483C80.1285 45.0951 79.6026 44.5343 79.2289 43.8001C78.8898 43.1421 78.703 42.3591 78.6753 41.4587H90.9863V39.9834C90.9863 38.4319 90.7718 37.0953 90.3427 35.9662C89.9137 34.8442 89.3255 33.916 88.5781 33.1818H88.585ZM78.7099 38.2451C78.7721 37.6286 78.9452 37.0468 79.2289 36.5135C79.5887 35.8485 80.087 35.3082 80.7306 34.8995C81.3742 34.4909 82.1215 34.283 82.9727 34.283C83.7685 34.283 84.4744 34.4633 85.0765 34.8235C85.6785 35.1836 86.1491 35.6752 86.4882 36.3055C86.8273 36.9288 87.0003 37.4416 87.0072 38.2451H78.7099Z" fill="black"/>
<path d="M106.025 33.3945C106.025 33.3945 104.759 31.0324 100.8 31.0324C96.8418 31.0324 92.9042 34.2118 92.9042 40.1339C92.9042 45.3772 95.7899 49.2698 100.786 49.2698C104.952 49.2698 106.108 46.97 106.108 46.97V48.958H110.205V25.3597H106.025V33.3874V33.3945ZM101.748 45.8549C98.9732 45.8549 97.1463 43.5901 97.1463 40.12C97.1463 36.6499 99.1739 34.4612 101.748 34.4612C103.956 34.4612 106.101 36.2135 106.101 40.12C106.101 43.791 104.156 45.8549 101.748 45.8549Z" fill="black"/>
<path d="M75.0869 31.4213H70.5195L66.1045 37.2049L61.6894 31.4213H57.1151L63.7447 40.2941L57.1151 48.9727H61.9731L66.1045 43.4525L70.2289 48.9727H75.0869L68.4573 40.2941L75.0869 31.4213Z" fill="black"/>
<path d="M114.676 25.3334V28.5473H120.918L114.676 34.7879V37.1428H116.862L123.264 30.7359V37.1428H126.475V25.3334H114.676Z" fill="black"/>
</svg>
